{
  "asset": {
    "version": "2.0",
    "generator": "THREE.GLTFExporter r174"
  },
  "scenes": [
    {
      "name": "Scene",
      "nodes": [
        0,
        2,
        4,
        5,
        6,
        8
      ]
    }
  ],
  "scene": 0,
  "nodes": [
    {
      "matrix": [
        0.9996021485119296,
        0.02820540179352668,
        0,
        0,
        -0.02820540179352668,
        0.9996021485119296,
        0,
        0,
        0,
        0,
        1,
        0,
        2.189104750194743,
        0.03906403636596867,
        -0.7672455879958249,
        1
      ],
      "name": "Box",
      "mesh": 0
    },
    {
      "matrix": [
        0.30730782445741656,
        -0.20176728514970696,
        -0.33889801367161543,
        0,
        0.36688494144258976,
        0.3039247921079767,
        0.15174043786937805,
        0,
        0.14476650430923954,
        -0.34193520348955,
        0.334847690517111,
        0,
        -1.7803626717271004,
        1.1130489027498653,
        0.7368777524162087,
        1
      ],
      "name": "Circle",
      "extras": {
        "name": "Circle"
      },
      "mesh": 1
    },
    {
      "name": "Coin.glb",
      "children": [
        1
      ]
    },
    {
      "matrix": [
        1,
        0,
        0,
        0,
        0,
        1,
        0,
        0,
        0,
        0,
        1,
        0,
        0,
        -0.4020241451339899,
        0,
        1
      ],
      "name": "Circle",
      "extras": {
        "name": "Circle"
      },
      "mesh": 2
    },
    {
      "name": "Coin2.glb",
      "children": [
        3
      ]
    },
    {
      "extras": {
        "unitScaleFactor": 1
      }
    },
    {
      "matrix": [
        1,
        0,
        0,
        0,
        0,
        1,
        0,
        0,
        0,
        0,
        1,
        0,
        0.10269783914750996,
        1.3013325575466341,
        0,
        1
      ],
      "name": "PointLight",
      "extensions": {
        "KHR_lights_punctual": {
          "light": 0
        }
      }
    },
    {
      "matrix": [
        0.43190108069622224,
        -0.13941697473005935,
        -0.08474311626036722,
        0,
        0.15894964083736787,
        0.4136394231949758,
        0.12959359345980237,
        0,
        0.0367899947071314,
        -0.1504074214788576,
        0.43494961015876543,
        0,
        -2.087791073995705,
        2.577164358216168,
        0.28002521328221675,
        1
      ],
      "name": "Cube",
      "extras": {
        "name": "Cube"
      },
      "mesh": 3
    },
    {
      "name": "The Cube.glb",
      "children": [
        7
      ]
    }
  ],
  "bufferViews": [
    {
      "buffer": 0,
      "byteOffset": 0,
      "byteLength": 288,
      "target": 34962,
      "byteStride": 12
    },
    {
      "buffer": 0,
      "byteOffset": 288,
      "byteLength": 288,
      "target": 34962,
      "byteStride": 12
    },
    {
      "buffer": 0,
      "byteOffset": 576,
      "byteLength": 192,
      "target": 34962,
      "byteStride": 8
    },
    {
      "buffer": 0,
      "byteOffset": 768,
      "byteLength": 72,
      "target": 34963
    },
    {
      "buffer": 0,
      "byteOffset": 840,
      "byteLength": 20736,
      "target": 34962,
      "byteStride": 12
    },
    {
      "buffer": 0,
      "byteOffset": 21576,
      "byteLength": 20736,
      "target": 34962,
      "byteStride": 12
    },
    {
      "buffer": 0,
      "byteOffset": 42312,
      "byteLength": 13824,
      "target": 34962,
      "byteStride": 8
    },
    {
      "buffer": 0,
      "byteOffset": 56136,
      "byteLength": 5352,
      "target": 34963
    },
    {
      "buffer": 0,
      "byteOffset": 61488,
      "byteLength": 18288,
      "target": 34962,
      "byteStride": 12
    },
    {
      "buffer": 0,
      "byteOffset": 79776,
      "byteLength": 18288,
      "target": 34962,
      "byteStride": 12
    },
    {
      "buffer": 0,
      "byteOffset": 98064,
      "byteLength": 12192,
      "target": 34962,
      "byteStride": 8
    },
    {
      "buffer": 0,
      "byteOffset": 110256,
      "byteLength": 24384,
      "target": 34962,
      "byteStride": 16
    },
    {
      "buffer": 0,
      "byteOffset": 134640,
      "byteLength": 2592,
      "target": 34962,
      "byteStride": 12
    },
    {
      "buffer": 0,
      "byteOffset": 137232,
      "byteLength": 2592,
      "target": 34962,
      "byteStride": 12
    },
    {
      "buffer": 0,
      "byteOffset": 139824,
      "byteLength": 1728,
      "target": 34962,
      "byteStride": 8
    },
    {
      "buffer": 0,
      "byteOffset": 141552,
      "byteLength": 1800,
      "target": 34963
    }
  ],
  "buffers": [
    {
      "byteLength": 143352,
      "uri": "data:application/octet-stream;base64,"
    }
  ],
  "accessors": [
    {
      "bufferView": 0,
      "componentType": 5126,
      "count": 24,
      "max": [
        0.5,
        0.5,
        0.5
      ],
      "min": [
        -0.5,
        -0.5,
        -0.5
      ],
      "type": "VEC3"
    },
    {
      "bufferView": 1,
      "componentType": 5126,
      "count": 24,
      "max": [
        1,
        1,
        1
      ],
      "min": [
        -1,
        -1,
        -1
      ],
      "type": "VEC3"
    },
    {
      "bufferView": 2,
      "componentType": 5126,
      "count": 24,
      "max": [
        1,
        1
      ],
      "min": [
        0,
        0
      ],
      "type": "VEC2"
    },
    {
      "bufferView": 3,
      "componentType": 5123,
      "count": 36,
      "max": [
        23
      ],
      "min": [
        0
      ],
      "type": "SCALAR"
    },
    {
      "bufferView": 4,
      "componentType": 5126,
      "count": 1728,
      "max": [
        0.995128333568573,
        0.5400238633155823,
        0.995128333568573
      ],
      "min": [
        -0.995128333568573,
        0,
        -0.995128333568573
      ],
      "type": "VEC3"
    },
    {
      "bufferView": 5,
      "componentType": 5126,
      "count": 1728,
      "max": [
        0.9991673231124878,
        1,
        0.9991673231124878
      ],
      "min": [
        -0.9991673231124878,
        -1,
        -0.9991673231124878
      ],
      "type": "VEC3"
    },
    {
      "bufferView": 6,
      "componentType": 5126,
      "count": 1728,
      "max": [
        0,
        1
      ],
      "min": [
        0,
        1
      ],
      "type": "VEC2"
    },
    {
      "bufferView": 7,
      "componentType": 5123,
      "count": 2676,
      "max": [
        1727
      ],
      "min": [
        0
      ],
      "type": "SCALAR"
    },
    {
      "bufferView": 8,
      "componentType": 5126,
      "count": 1524,
      "max": [
        1,
        0.19538752734661102,
        1
      ],
      "min": [
        -1,
        -0.19538752734661102,
        -1
      ],
      "type": "VEC3"
    },
    {
      "bufferView": 9,
      "componentType": 5126,
      "count": 1524,
      "max": [
        0.9951847195625305,
        1,
        0.9951847195625305
      ],
      "min": [
        -0.9951847195625305,
        -1,
        -0.9951847195625305
      ],
      "type": "VEC3"
    },
    {
      "bufferView": 10,
      "componentType": 5126,
      "count": 1524,
      "max": [
        0,
        1
      ],
      "min": [
        0,
        1
      ],
      "type": "VEC2"
    },
    {
      "bufferView": 11,
      "componentType": 5126,
      "count": 1524,
      "max": [
        1,
        0,
        0,
        1
      ],
      "min": [
        1,
        0,
        0,
        1
      ],
      "type": "VEC4"
    },
    {
      "bufferView": 12,
      "componentType": 5126,
      "count": 216,
      "max": [
        1,
        1,
        1
      ],
      "min": [
        -1,
        -1,
        -1
      ],
      "type": "VEC3"
    },
    {
      "bufferView": 13,
      "componentType": 5126,
      "count": 216,
      "max": [
        0.9898691773414612,
        0.9898691773414612,
        0.9898691773414612
      ],
      "min": [
        -0.9898691773414612,
        -0.9898691773414612,
        -0.9898691773414612
      ],
      "type": "VEC3"
    },
    {
      "bufferView": 14,
      "componentType": 5126,
      "count": 216,
      "max": [
        1,
        1
      ],
      "min": [
        -2.4182507107894935e-9,
        0.3285331726074219
      ],
      "type": "VEC2"
    },
    {
      "bufferView": 15,
      "componentType": 5123,
      "count": 900,
      "max": [
        215
      ],
      "min": [
        0
      ],
      "type": "SCALAR"
    }
  ],
  "materials": [
    {
      "pbrMetallicRoughness": {
        "baseColorFactor": [
          0.34191442489801843,
          0.34191442489801843,
          0.34191442489801843,
          1
        ],
        "metallicFactor": 1,
        "roughnessFactor": 0.78
      },
      "emissiveFactor": [
        0.5394794890033748,
        0.5394794890033748,
        0.5394794890033748
      ],
      "extensions": {
        "KHR_materials_emissive_strength": {
          "emissiveStrength": 0
        }
      }
    },
    {
      "pbrMetallicRoughness": {
        "metallicFactor": 1,
        "roughnessFactor": 0.6
      }
    },
    {
      "pbrMetallicRoughness": {
        "baseColorFactor": [
          0.5711248294565854,
          0.5711248294565854,
          0.5711248294565854,
          1
        ],
        "metallicFactor": 0,
        "roughnessFactor": 1
      },
      "doubleSided": true
    },
    {
      "pbrMetallicRoughness": {
        "metallicFactor": 1,
        "roughnessFactor": 0.2672727406024933
      },
      "emissiveFactor": [
        1,
        1,
        1
      ],
      "emissiveTexture": {
        "index": 0,
        "texCoord": 0
      },
      "doubleSided": true,
      "name": "Material.003",
      "extensions": {
        "KHR_materials_emissive_strength": {
          "emissiveStrength": 2.48
        }
      }
    }
  ],
  "meshes": [
    {
      "primitives": [
        {
          "mode": 4,
          "attributes": {
            "POSITION": 0,
            "NORMAL": 1,
            "TEXCOORD_0": 2
          },
          "indices": 3,
          "material": 0
        }
      ]
    },
    {
      "primitives": [
        {
          "mode": 4,
          "attributes": {
            "POSITION": 4,
            "NORMAL": 5,
            "TEXCOORD_0": 6
          },
          "indices": 7,
          "material": 1
        }
      ]
    },
    {
      "primitives": [
        {
          "mode": 4,
          "attributes": {
            "POSITION": 8,
            "NORMAL": 9,
            "TEXCOORD_0": 10,
            "TANGENT": 11
          },
          "material": 2
        }
      ]
    },
    {
      "primitives": [
        {
          "mode": 4,
          "attributes": {
            "POSITION": 12,
            "NORMAL": 13,
            "TEXCOORD_0": 14
          },
          "indices": 15,
          "material": 3
        }
      ]
    }
  ],
  "extensions": {
    "KHR_lights_punctual": {
      "lights": [
        {
          "name": "PointLight",
          "color": [
            1,
            1,
            1
          ],
          "intensity": 1,
          "type": "point"
        }
      ]
    }
  },
  "textures": [
    {
      "sampler": 0,
      "source": 0
    }
  ],
  "samplers": [
    {
      "magFilter": 9729,
      "minFilter": 9987,
      "wrapS": 33071,
      "wrapT": 33071
    }
  ],
  "images": [
    {
      "mimeType": "image/png",
      "uri": "data:image/png;base64,"
    }
  ],
  "extensionsUsed": [
    "KHR_materials_emissive_strength",
    "KHR_lights_punctual"
  ]
}